<svg id="Layer_1" data-name="Layer 1" xmlns="http://www.w3.org/2000/svg" viewBox="0 0 214.02 92.12"><defs><style>.cls-1{fill:#204266;}</style></defs><path class="cls-1" d="M5.86,25.39H21.6v8c3.83-5.17,9.1-9,17.28-9C51.82,24.35,64.13,34.5,64.13,53v.21C64.13,71.76,52,81.9,38.88,81.9c-8.38,0-13.56-3.83-17.28-8.28V97.43H5.86ZM48.4,53.23V53c0-9.21-6.21-15.31-13.56-15.31S21.39,43.81,21.39,53v.21c0,9.21,6.11,15.32,13.45,15.32S48.4,62.55,48.4,53.23Z" transform="translate(-5.86 -5.31)"/><path class="cls-1" d="M94.5,5.31h15.74V80.87H94.5Z" transform="translate(-5.86 -5.31)"/><path class="cls-1" d="M191.1,65.13V38.84h-6.62V25.39h6.62V11.21h15.74V25.39h13V38.84h-13V62.55c0,3.62,1.55,5.38,5.07,5.38a15.91,15.91,0,0,0,7.76-2V78.59a23.15,23.15,0,0,1-12.42,3.21C197.63,81.8,191.1,78,191.1,65.13Z" transform="translate(-5.86 -5.31)"/><path class="cls-1" d="M70.39,25.39H86.12V80.87H70.39Z" transform="translate(-5.86 -5.31)"/><circle class="cls-1" cx="72.63" cy="8.11" r="8.11"/><path class="cls-1" d="M150.86,46.66a2.88,2.88,0,0,0,.47-2l.42-22.46a3.74,3.74,0,0,1,.48-1.77,2.53,2.53,0,0,0-.27-3.28,2.54,2.54,0,0,0-4.33,1.8,2.57,2.57,0,0,0,.31,1.22l.12.19a4.13,4.13,0,0,1,.52,2.15l.35,22.15c0,.57,0,2.3,1.24,2.3A1,1,0,0,0,150.86,46.66Z" transform="translate(-5.86 -5.31)"/><path class="cls-1" d="M149.45,59.78a2.79,2.79,0,0,0-.52,2l-.35,22.15a4.13,4.13,0,0,1-.51,2.13l-.13.2a2.64,2.64,0,0,0-.31,1.23,2.5,2.5,0,0,0,.74,1.79,2.55,2.55,0,0,0,4.34-1.79,2.51,2.51,0,0,0-.49-1.49,3.81,3.81,0,0,1-.47-1.78l-.42-22.45c0-.74,0-2.29-1.16-2.29A1,1,0,0,0,149.45,59.78Z" transform="translate(-5.86 -5.31)"/><path class="cls-1" d="M156.72,53.9a2.88,2.88,0,0,0,2,.47l22.46.42a3.78,3.78,0,0,1,1.77.48,2.54,2.54,0,1,0,1.48-4.6,2.64,2.64,0,0,0-1.23.31l-.19.12a4.09,4.09,0,0,1-2.14.53L158.73,52c-.56,0-2.29,0-2.29,1.24A1,1,0,0,0,156.72,53.9Z" transform="translate(-5.86 -5.31)"/><path class="cls-1" d="M143.6,52.49a2.81,2.81,0,0,0-2-.52l-22.15-.34a4.09,4.09,0,0,1-2.13-.52l-.21-.13a2.57,2.57,0,0,0-1.22-.31,2.54,2.54,0,1,0,1.49,4.59,3.81,3.81,0,0,1,1.78-.47l22.44-.42c.74,0,2.3,0,2.3-1.16A1,1,0,0,0,143.6,52.49Z" transform="translate(-5.86 -5.31)"/><path class="cls-1" d="M154.31,58.33c0,.55.44,1.11,1.1,1.76L171,76.27a3.93,3.93,0,0,1,.92,1.59,2.44,2.44,0,0,0,.7,1.38,2.54,2.54,0,1,0,3.59-3.59,2.59,2.59,0,0,0-1.08-.64L174.9,75A4.06,4.06,0,0,1,173,73.81L157.1,58.39c-.4-.4-1.62-1.62-2.5-.75A1,1,0,0,0,154.31,58.33Z" transform="translate(-5.86 -5.31)"/><path class="cls-1" d="M146,48.05A2.81,2.81,0,0,0,145,46.27l-15.42-15.9a4.17,4.17,0,0,1-1.14-1.87,2.08,2.08,0,0,0,0-.24,2.63,2.63,0,0,0-.64-1.09,2.55,2.55,0,1,0-2.2,4.3,3.86,3.86,0,0,1,1.59.93L143.29,48c.52.52,1.62,1.62,2.44.79A1,1,0,0,0,146,48.05Z" transform="translate(-5.86 -5.31)"/><path class="cls-1" d="M145,57.35c-.55,0-1.1.44-1.76,1.1L127.11,74a3.78,3.78,0,0,1-1.6.92,2.47,2.47,0,0,0-1.38.7,2.54,2.54,0,1,0,4.24,2.51l0-.22a4.06,4.06,0,0,1,1.15-1.89L145,60.14c.4-.4,1.63-1.62.75-2.5A1,1,0,0,0,145,57.35Z" transform="translate(-5.86 -5.31)"/><path class="cls-1" d="M155.32,49.08A2.81,2.81,0,0,0,157.1,48L173,32.61a4,4,0,0,1,1.87-1.14l.24-.06a2.59,2.59,0,0,0,1.08-.64,2.54,2.54,0,0,0,0-3.6,2.55,2.55,0,0,0-3.59,0,2.54,2.54,0,0,0-.71,1.4,3.82,3.82,0,0,1-.92,1.59L155.4,46.33c-.52.52-1.62,1.62-.8,2.44A1,1,0,0,0,155.32,49.08Z" transform="translate(-5.86 -5.31)"/><path class="cls-1" d="M150.17,46.94a6.27,6.27,0,1,1-6.27,6.27,6.27,6.27,0,0,1,6.27-6.27m0-4.22a10.49,10.49,0,1,0,10.49,10.49,10.49,10.49,0,0,0-10.49-10.49Z" transform="translate(-5.86 -5.31)"/><path class="cls-1" d="M150.17,34.1a19.1,19.1,0,1,1-13.52,5.59,19,19,0,0,1,13.52-5.59m0-8.73A27.84,27.84,0,1,0,178,53.21a27.84,27.84,0,0,0-27.84-27.84Z" transform="translate(-5.86 -5.31)"/></svg>