<svg id="Layer_1" data-name="Layer 1" xmlns="http://www.w3.org/2000/svg" viewBox="0 0 991.17 940.46"><defs><style>.cls-1{fill:#DEE3E8;opacity:0.15;}</style></defs><path class="cls-1" d="M406.42,848.14,594,844.64A226.64,226.64,0,0,0,641.68,960h358.79l-.94-.91q6.63-8.48,12.47-17.56V695.76q-5.84-9.09-12.5-17.59l12.5-12.11v-77.9l-50.19,52.1a226.7,226.7,0,0,0-115.57-47.87l3.51-187.56A411.49,411.49,0,0,1,1012,450.58V245.44a602,602,0,0,0-158.7-30.18l1.31-70.06c1.07-16.3,4.76-30.14,10.36-38.53a55.06,55.06,0,1,0-93.05-5.44c.78,1.42,2.52,4.13,2.52,4.13,6.87,9.62,10.94,26.47,11.43,46.6l1,63.32A601.83,601.83,0,0,0,417.21,368.39l-44.13-45.53c-13.83-14.52-22.87-29.32-24.74-40.55-.08-.42-.76-3.57-1.21-5.13a55.2,55.2,0,1,0-61.6,69.71c9.55,1.91,21.94,9.09,34.53,20.14l50.16,48.33A601.8,601.8,0,0,0,216.87,785.24l-63.38-1c-20.05-.48-36.9-4.56-46.17-11.18-.35-.24-3.06-2-4.48-2.77a55.2,55.2,0,1,0,5.73,92.86c8.1-5.4,21.94-9.09,38.66-10.18l69.61-1.3A603.47,603.47,0,0,0,232.59,960H430A413.22,413.22,0,0,1,406.42,848.14ZM820.24,682.57c75,0,136.07,61,136.07,136.08s-61,136.08-136.07,136.08S684.16,893.68,684.16,818.65,745.2,682.57,820.24,682.57ZM789.84,404.9l2.94,187.66a226.6,226.6,0,0,0-113,46.79L549.18,504.57A411.09,411.09,0,0,1,789.84,404.9Zm-283.08,142L641.87,677.05a226.65,226.65,0,0,0-47.72,114.12l-187.67-2.95A411.19,411.19,0,0,1,506.76,546.89Z" transform="translate(-20.83 -19.54)"/></svg>